<svg width="1440" height="785" viewBox="0 0 1440 785" fill="none" xmlns="http://www.w3.org/2000/svg">
<path d="M413.324 445.992C414.08 444.48 415.172 443.332 416.6 442.492C418 441.652 419.652 441.232 421.528 441.232C423.684 441.232 425.504 441.82 426.96 442.996C428.416 444.172 429.34 445.796 429.732 447.812H427.296C426.932 446.468 426.232 445.404 425.196 444.62C424.16 443.864 422.9 443.472 421.416 443.472C420.072 443.472 418.868 443.808 417.86 444.452C416.824 445.124 416.04 446.02 415.48 447.196C414.92 448.372 414.668 449.688 414.668 451.2C414.668 452.712 414.92 454.028 415.48 455.204C416.04 456.38 416.824 457.304 417.86 457.948C418.868 458.62 420.072 458.928 421.416 458.928C422.928 458.928 424.188 458.564 425.196 457.808C426.204 457.052 426.876 455.988 427.268 454.588H429.704C429.312 456.632 428.416 458.228 426.96 459.404C425.504 460.58 423.712 461.168 421.528 461.168C419.652 461.168 418 460.776 416.6 459.936C415.172 459.096 414.08 457.948 413.324 456.436C412.54 454.924 412.176 453.188 412.176 451.2C412.176 449.24 412.54 447.504 413.324 445.992ZM434.771 460.244C433.707 459.628 432.867 458.788 432.279 457.668C431.663 456.576 431.383 455.316 431.383 453.86C431.383 452.432 431.663 451.172 432.279 450.052C432.867 448.96 433.707 448.092 434.771 447.476C435.835 446.86 437.067 446.552 438.467 446.552C439.839 446.552 441.071 446.86 442.135 447.476C443.199 448.092 444.039 448.96 444.655 450.052C445.243 451.172 445.551 452.432 445.551 453.86C445.551 455.316 445.243 456.576 444.655 457.668C444.039 458.788 443.199 459.628 442.135 460.244C441.071 460.86 439.839 461.168 438.467 461.168C437.067 461.168 435.835 460.86 434.771 460.244ZM440.931 458.452C441.659 458.004 442.219 457.388 442.611 456.576C443.003 455.792 443.199 454.868 443.199 453.86C443.199 452.852 443.003 451.956 442.611 451.144C442.219 450.36 441.659 449.716 440.931 449.268C440.203 448.82 439.391 448.596 438.467 448.596C437.515 448.596 436.703 448.82 435.975 449.268C435.247 449.716 434.715 450.36 434.323 451.144C433.931 451.956 433.735 452.852 433.735 453.86C433.735 454.868 433.931 455.792 434.323 456.576C434.715 457.388 435.247 458.004 435.975 458.452C436.703 458.9 437.515 459.124 438.467 459.124C439.391 459.124 440.203 458.9 440.931 458.452ZM467.448 448.064C468.456 449.072 468.96 450.64 468.96 452.768V461H466.664V452.908C466.664 451.536 466.356 450.472 465.768 449.744C465.18 449.016 464.34 448.652 463.276 448.652C462.072 448.652 461.12 449.072 460.448 449.912C459.776 450.752 459.44 451.9 459.44 453.356V461H457.144V452.908C457.144 451.536 456.836 450.472 456.248 449.744C455.632 449.016 454.792 448.652 453.7 448.652C452.524 448.652 451.6 449.1 450.928 449.996C450.256 450.892 449.92 452.04 449.92 453.468V461H447.624V446.72H449.612L449.92 448.68C450.928 447.28 452.328 446.552 454.092 446.552C455.1 446.552 456.024 446.804 456.808 447.252C457.592 447.7 458.208 448.372 458.6 449.268C459.608 447.476 461.26 446.552 463.556 446.552C465.152 446.552 466.44 447.056 467.448 448.064ZM482.069 447.42C483.105 448.008 483.917 448.848 484.505 449.94C485.093 451.06 485.401 452.348 485.401 453.86C485.401 455.316 485.093 456.576 484.505 457.668C483.917 458.788 483.105 459.628 482.069 460.244C481.005 460.86 479.829 461.168 478.541 461.168C477.365 461.168 476.385 460.972 475.573 460.552C474.733 460.132 474.089 459.544 473.641 458.816V466.6H471.345V446.72H473.333L473.641 449.016C474.817 447.392 476.469 446.552 478.541 446.552C479.857 446.552 481.033 446.86 482.069 447.42ZM481.733 457.668C482.601 456.688 483.049 455.428 483.049 453.86C483.049 452.32 482.601 451.06 481.733 450.08C480.865 449.1 479.717 448.596 478.317 448.596C477.393 448.596 476.581 448.82 475.853 449.268C475.125 449.716 474.593 450.332 474.201 451.116C473.809 451.9 473.613 452.796 473.613 453.804C473.613 454.84 473.809 455.764 474.201 456.576C474.593 457.388 475.125 458.004 475.853 458.452C476.581 458.9 477.393 459.124 478.317 459.124C479.717 459.124 480.865 458.648 481.733 457.668ZM500.821 458.9V461H499.561C498.637 461 497.993 460.832 497.601 460.44C497.209 460.076 496.985 459.516 496.985 458.788C495.865 460.384 494.269 461.168 492.197 461.168C490.601 461.168 489.313 460.804 488.361 460.048C487.409 459.32 486.933 458.284 486.933 456.996C486.933 455.568 487.409 454.476 488.389 453.692C489.369 452.936 490.797 452.544 492.673 452.544H496.873V451.564C496.873 450.64 496.537 449.912 495.921 449.38C495.305 448.876 494.437 448.596 493.317 448.596C492.309 448.596 491.497 448.82 490.853 449.268C490.209 449.716 489.817 450.276 489.677 451.004H487.381C487.549 449.604 488.165 448.512 489.229 447.728C490.293 446.944 491.693 446.552 493.429 446.552C495.249 446.552 496.649 447 497.657 447.896C498.665 448.792 499.169 450.052 499.169 451.704V457.864C499.169 458.564 499.477 458.9 500.121 458.9H500.821ZM496.873 454.476H492.449C490.321 454.476 489.257 455.288 489.257 456.856C489.257 457.584 489.537 458.144 490.097 458.564C490.657 459.012 491.413 459.208 492.365 459.208C493.765 459.208 494.857 458.844 495.669 458.116C496.453 457.388 496.873 456.408 496.873 455.176V454.476ZM513.198 448.12C514.262 449.184 514.794 450.808 514.794 453.048V461H512.498V453.188C512.498 451.732 512.162 450.612 511.49 449.828C510.818 449.044 509.866 448.652 508.634 448.652C507.29 448.652 506.226 449.128 505.47 450.052C504.686 451.004 504.322 452.264 504.322 453.86V461H502.026V446.72H504.014L504.322 448.652C505.386 447.252 506.954 446.552 509.026 446.552C510.762 446.552 512.134 447.084 513.198 448.12ZM517.759 446.72L522.155 458.368L526.411 446.72H528.847L522.267 463.408C521.931 464.276 521.623 464.92 521.371 465.34C521.091 465.788 520.783 466.096 520.391 466.292C519.999 466.516 519.467 466.6 518.823 466.6H516.079V464.5H518.123C518.571 464.5 518.907 464.472 519.131 464.36C519.355 464.276 519.523 464.136 519.663 463.912C519.803 463.688 519.971 463.324 520.195 462.82L520.923 461.112L515.323 446.72H517.759Z" fill="#FCFCFC"/>
<path d="M411.128 498L415.32 486.8H417.512L421.688 498H419.72L418.664 495.232H414.072L413.032 498H411.128ZM414.584 493.664H418.152L416.36 488.784L414.584 493.664ZM428.725 490.224C429.301 490.56 429.765 491.04 430.101 491.664C430.421 492.304 430.597 493.04 430.597 493.904C430.597 494.736 430.421 495.456 430.101 496.096C429.765 496.736 429.301 497.216 428.725 497.568C428.133 497.92 427.461 498.096 426.725 498.096C426.117 498.096 425.589 497.984 425.141 497.76C424.693 497.536 424.325 497.216 424.053 496.816L423.845 498H422.341V486.8H424.069V491.024C424.709 490.16 425.605 489.712 426.725 489.712C427.461 489.712 428.133 489.888 428.725 490.224ZM428.165 495.888C428.613 495.376 428.837 494.72 428.837 493.904C428.837 493.104 428.613 492.464 428.165 491.952C427.717 491.44 427.141 491.184 426.437 491.184C425.717 491.184 425.141 491.44 424.709 491.936C424.261 492.448 424.053 493.088 424.053 493.888C424.053 494.704 424.261 495.36 424.709 495.872C425.141 496.384 425.717 496.64 426.437 496.64C427.141 496.64 427.717 496.4 428.165 495.888ZM433.341 497.584C432.701 497.232 432.221 496.752 431.869 496.112C431.517 495.472 431.357 494.736 431.357 493.904C431.357 493.088 431.517 492.368 431.869 491.728C432.221 491.088 432.701 490.592 433.341 490.24C433.981 489.888 434.701 489.712 435.533 489.712C436.349 489.712 437.069 489.888 437.709 490.24C438.349 490.592 438.829 491.088 439.181 491.728C439.533 492.368 439.709 493.088 439.709 493.904C439.709 494.736 439.533 495.472 439.181 496.112C438.829 496.752 438.349 497.232 437.709 497.584C437.069 497.936 436.349 498.096 435.533 498.096C434.701 498.096 433.981 497.936 433.341 497.584ZM437.277 495.872C437.725 495.36 437.949 494.704 437.949 493.904C437.949 493.104 437.725 492.464 437.277 491.952C436.829 491.44 436.253 491.184 435.533 491.184C434.797 491.184 434.221 491.44 433.789 491.952C433.341 492.464 433.133 493.104 433.133 493.904C433.133 494.704 433.341 495.36 433.789 495.872C434.221 496.384 434.797 496.624 435.533 496.624C436.253 496.624 436.829 496.384 437.277 495.872ZM448.123 489.808V498H446.603L446.411 496.96C445.787 497.728 444.939 498.096 443.883 498.096C442.923 498.096 442.139 497.808 441.547 497.2C440.939 496.608 440.651 495.648 440.651 494.32V489.808H442.379V494.144C442.379 494.944 442.539 495.552 442.859 495.968C443.179 496.384 443.643 496.592 444.283 496.592C444.939 496.592 445.451 496.352 445.835 495.872C446.203 495.392 446.395 494.72 446.395 493.872V489.808H448.123ZM450.08 491.328H448.656V489.808H450.08V487.52H451.824V489.808H453.792V491.328H451.824V495.6C451.824 495.92 451.888 496.16 452.016 496.288C452.144 496.416 452.352 496.48 452.672 496.48H453.984V498H452.32C451.536 498 450.96 497.824 450.608 497.456C450.256 497.104 450.08 496.544 450.08 495.776V491.328Z" fill="#FCFCFC"/>
<path d="M416.44 515.8C417.208 515.8 417.88 515.96 418.472 516.248C419.048 516.536 419.512 516.952 419.832 517.496C420.152 518.04 420.312 518.664 420.312 519.368C420.312 520.088 420.152 520.712 419.832 521.256C419.512 521.8 419.048 522.216 418.472 522.504C417.88 522.792 417.208 522.936 416.44 522.936H413.864V527H412.024V515.8H416.44ZM413.864 521.336H416.28C416.936 521.336 417.464 521.16 417.848 520.808C418.232 520.456 418.44 519.976 418.44 519.368C418.44 518.76 418.248 518.28 417.864 517.928C417.48 517.576 416.952 517.4 416.296 517.4H413.864V521.336ZM428.587 525.496V527H427.675C427.131 527 426.747 526.888 426.523 526.664C426.283 526.44 426.171 526.12 426.171 525.688C425.547 526.632 424.651 527.096 423.467 527.096C422.539 527.096 421.803 526.888 421.259 526.456C420.699 526.04 420.427 525.448 420.427 524.696C420.427 523.864 420.715 523.208 421.323 522.76C421.915 522.312 422.779 522.072 423.931 522.072H425.995V521.576C425.995 521.128 425.835 520.76 425.515 520.504C425.195 520.248 424.747 520.104 424.187 520.104C423.675 520.104 423.259 520.216 422.939 520.44C422.619 520.664 422.427 520.952 422.363 521.304H420.667C420.747 520.488 421.115 519.848 421.755 519.4C422.395 518.952 423.227 518.712 424.267 518.712C425.355 518.712 426.203 518.968 426.811 519.48C427.403 519.992 427.707 520.728 427.707 521.688V524.92C427.707 525.304 427.883 525.496 428.251 525.496H428.587ZM425.995 523.352H423.851C423.307 523.352 422.907 523.464 422.619 523.672C422.331 523.88 422.187 524.184 422.187 524.584C422.187 524.936 422.315 525.224 422.587 525.432C422.859 525.656 423.227 525.752 423.707 525.752C424.411 525.752 424.971 525.56 425.371 525.176C425.771 524.792 425.979 524.28 425.995 523.64V523.352ZM433.736 518.808V520.424H432.968C432.248 520.424 431.736 520.664 431.416 521.128C431.096 521.592 430.936 522.184 430.936 522.888V527H429.208V518.808H430.744L430.936 520.04C431.16 519.656 431.464 519.368 431.848 519.144C432.216 518.92 432.712 518.808 433.352 518.808H433.736ZM434.513 516.52H436.241V518.808H438.225V520.328H436.241V524.6C436.241 524.92 436.305 525.16 436.433 525.288C436.561 525.416 436.769 525.48 437.089 525.48H438.401V527H436.737C435.953 527 435.393 526.824 435.041 526.456C434.689 526.104 434.513 525.544 434.513 524.776V516.52ZM445.709 519.608C446.317 520.216 446.637 521.176 446.637 522.488V527H444.893V522.584C444.893 521.816 444.717 521.224 444.397 520.808C444.061 520.408 443.581 520.2 442.941 520.2C442.253 520.2 441.709 520.44 441.325 520.92C440.941 521.4 440.749 522.04 440.749 522.872V527H439.021V518.808H440.525L440.717 519.88C441.325 519.112 442.205 518.712 443.341 518.712C444.301 518.712 445.101 519.016 445.709 519.608ZM448.081 520.712C448.417 520.072 448.881 519.592 449.489 519.24C450.097 518.888 450.785 518.712 451.569 518.712C452.353 518.712 453.041 518.872 453.649 519.192C454.257 519.512 454.721 519.976 455.073 520.552C455.425 521.144 455.601 521.832 455.617 522.616C455.617 522.84 455.601 523.048 455.569 523.272H449.393V523.368C449.425 524.088 449.649 524.648 450.065 525.064C450.465 525.48 451.009 525.688 451.681 525.688C452.209 525.688 452.657 525.576 453.025 525.32C453.377 525.064 453.617 524.712 453.745 524.248H455.473C455.313 525.08 454.913 525.768 454.257 526.296C453.601 526.84 452.785 527.096 451.809 527.096C450.945 527.096 450.209 526.936 449.569 526.584C448.929 526.232 448.449 525.752 448.097 525.112C447.745 524.488 447.585 523.752 447.585 522.92C447.585 522.088 447.745 521.352 448.081 520.712ZM453.857 522.008C453.777 521.416 453.537 520.952 453.137 520.616C452.737 520.28 452.241 520.104 451.633 520.104C451.057 520.104 450.577 520.28 450.161 520.632C449.745 520.984 449.521 521.432 449.457 522.008H453.857ZM461.222 518.808V520.424H460.454C459.734 520.424 459.222 520.664 458.902 521.128C458.582 521.592 458.422 522.184 458.422 522.888V527H456.694V518.808H458.23L458.422 520.04C458.646 519.656 458.95 519.368 459.334 519.144C459.702 518.92 460.198 518.808 460.838 518.808H461.222ZM463.14 524.296C463.172 524.728 463.364 525.08 463.732 525.352C464.1 525.624 464.58 525.752 465.172 525.752C465.684 525.752 466.116 525.656 466.436 525.464C466.756 525.272 466.932 525 466.932 524.664C466.932 524.392 466.852 524.184 466.708 524.04C466.548 523.912 466.356 523.816 466.1 523.752C465.844 523.688 465.46 523.624 464.948 523.56C464.228 523.48 463.636 523.368 463.172 523.224C462.708 523.08 462.34 522.856 462.052 522.536C461.764 522.216 461.636 521.8 461.636 521.256C461.636 520.76 461.764 520.312 462.052 519.928C462.34 519.544 462.724 519.24 463.22 519.016C463.716 518.808 464.276 518.696 464.916 518.696C465.94 518.696 466.788 518.936 467.428 519.384C468.068 519.848 468.42 520.488 468.484 521.32H466.804C466.756 520.952 466.564 520.648 466.244 520.408C465.908 520.168 465.492 520.04 464.996 520.04C464.484 520.04 464.084 520.136 463.78 520.328C463.46 520.52 463.316 520.792 463.316 521.112C463.316 521.368 463.38 521.544 463.54 521.672C463.7 521.8 463.892 521.88 464.132 521.928C464.356 521.976 464.74 522.024 465.268 522.088C465.972 522.168 466.564 522.28 467.044 522.44C467.524 522.6 467.908 522.84 468.196 523.176C468.484 523.512 468.628 523.96 468.628 524.536C468.628 525.048 468.468 525.512 468.18 525.896C467.876 526.28 467.46 526.584 466.948 526.792C466.42 527 465.828 527.096 465.188 527.096C464.084 527.096 463.188 526.856 462.516 526.36C461.844 525.864 461.492 525.176 461.476 524.296H463.14Z" fill="#FCFCFC"/>
<path d="M412.248 547.424C412.696 546.56 413.32 545.904 414.136 545.424C414.952 544.944 415.912 544.704 417 544.704C417.832 544.704 418.6 544.864 419.272 545.184C419.944 545.504 420.504 545.968 420.936 546.56C421.352 547.152 421.624 547.84 421.752 548.608H419.912C419.72 547.904 419.368 547.344 418.856 546.928C418.328 546.528 417.688 546.32 416.92 546.32C416.216 546.32 415.608 546.496 415.096 546.848C414.568 547.2 414.168 547.68 413.896 548.288C413.608 548.896 413.48 549.6 413.48 550.4C413.48 551.2 413.608 551.904 413.896 552.512C414.168 553.136 414.568 553.616 415.096 553.968C415.608 554.32 416.216 554.48 416.92 554.48C417.688 554.48 418.328 554.288 418.84 553.872C419.352 553.472 419.704 552.912 419.896 552.192H421.736C421.608 552.992 421.336 553.68 420.92 554.256C420.504 554.848 419.96 555.296 419.288 555.616C418.616 555.936 417.848 556.096 417 556.096C415.912 556.096 414.952 555.872 414.136 555.392C413.32 554.928 412.696 554.272 412.248 553.408C411.8 552.544 411.592 551.552 411.592 550.4C411.592 549.28 411.8 548.288 412.248 547.424ZM430.665 554.496V556H429.753C429.209 556 428.825 555.888 428.601 555.664C428.361 555.44 428.249 555.12 428.249 554.688C427.625 555.632 426.729 556.096 425.545 556.096C424.617 556.096 423.881 555.888 423.337 555.456C422.777 555.04 422.505 554.448 422.505 553.696C422.505 552.864 422.793 552.208 423.401 551.76C423.993 551.312 424.857 551.072 426.009 551.072H428.073V550.576C428.073 550.128 427.913 549.76 427.593 549.504C427.273 549.248 426.825 549.104 426.265 549.104C425.753 549.104 425.337 549.216 425.017 549.44C424.697 549.664 424.505 549.952 424.441 550.304H422.745C422.825 549.488 423.193 548.848 423.833 548.4C424.473 547.952 425.305 547.712 426.345 547.712C427.433 547.712 428.281 547.968 428.889 548.48C429.481 548.992 429.785 549.728 429.785 550.688V553.92C429.785 554.304 429.961 554.496 430.329 554.496H430.665ZM428.073 552.352H425.929C425.385 552.352 424.985 552.464 424.697 552.672C424.409 552.88 424.265 553.184 424.265 553.584C424.265 553.936 424.393 554.224 424.665 554.432C424.937 554.656 425.305 554.752 425.785 554.752C426.489 554.752 427.049 554.56 427.449 554.176C427.849 553.792 428.057 553.28 428.073 552.64V552.352ZM435.814 547.808V549.424H435.046C434.326 549.424 433.814 549.664 433.494 550.128C433.174 550.592 433.014 551.184 433.014 551.888V556H431.286V547.808H432.822L433.014 549.04C433.238 548.656 433.542 548.368 433.926 548.144C434.294 547.92 434.79 547.808 435.43 547.808H435.814ZM436.393 549.712C436.729 549.072 437.193 548.592 437.801 548.24C438.409 547.888 439.097 547.712 439.881 547.712C440.665 547.712 441.353 547.872 441.961 548.192C442.569 548.512 443.033 548.976 443.385 549.552C443.737 550.144 443.913 550.832 443.929 551.616C443.929 551.84 443.913 552.048 443.881 552.272H437.705V552.368C437.737 553.088 437.961 553.648 438.377 554.064C438.777 554.48 439.321 554.688 439.993 554.688C440.521 554.688 440.969 554.576 441.337 554.32C441.689 554.064 441.929 553.712 442.057 553.248H443.785C443.625 554.08 443.225 554.768 442.569 555.296C441.913 555.84 441.097 556.096 440.121 556.096C439.257 556.096 438.521 555.936 437.881 555.584C437.241 555.232 436.761 554.752 436.409 554.112C436.057 553.488 435.897 552.752 435.897 551.92C435.897 551.088 436.057 550.352 436.393 549.712ZM442.169 551.008C442.089 550.416 441.849 549.952 441.449 549.616C441.049 549.28 440.553 549.104 439.945 549.104C439.369 549.104 438.889 549.28 438.473 549.632C438.057 549.984 437.833 550.432 437.769 551.008H442.169ZM445.198 549.712C445.534 549.072 445.998 548.592 446.606 548.24C447.214 547.888 447.902 547.712 448.686 547.712C449.47 547.712 450.158 547.872 450.766 548.192C451.374 548.512 451.838 548.976 452.19 549.552C452.542 550.144 452.718 550.832 452.734 551.616C452.734 551.84 452.718 552.048 452.686 552.272H446.51V552.368C446.542 553.088 446.766 553.648 447.182 554.064C447.582 554.48 448.126 554.688 448.798 554.688C449.326 554.688 449.774 554.576 450.142 554.32C450.494 554.064 450.734 553.712 450.862 553.248H452.59C452.43 554.08 452.03 554.768 451.374 555.296C450.718 555.84 449.902 556.096 448.926 556.096C448.062 556.096 447.326 555.936 446.686 555.584C446.046 555.232 445.566 554.752 445.214 554.112C444.862 553.488 444.702 552.752 444.702 551.92C444.702 551.088 444.862 550.352 445.198 549.712ZM450.974 551.008C450.894 550.416 450.654 549.952 450.254 549.616C449.854 549.28 449.358 549.104 448.75 549.104C448.174 549.104 447.694 549.28 447.278 549.632C446.862 549.984 446.638 550.432 446.574 551.008H450.974ZM458.339 547.808V549.424H457.571C456.851 549.424 456.339 549.664 456.019 550.128C455.699 550.592 455.539 551.184 455.539 551.888V556H453.811V547.808H455.347L455.539 549.04C455.763 548.656 456.067 548.368 456.451 548.144C456.819 547.92 457.315 547.808 457.955 547.808H458.339ZM460.257 553.296C460.289 553.728 460.481 554.08 460.849 554.352C461.217 554.624 461.697 554.752 462.289 554.752C462.801 554.752 463.233 554.656 463.553 554.464C463.873 554.272 464.049 554 464.049 553.664C464.049 553.392 463.969 553.184 463.825 553.04C463.665 552.912 463.473 552.816 463.217 552.752C462.961 552.688 462.577 552.624 462.065 552.56C461.345 552.48 460.753 552.368 460.289 552.224C459.825 552.08 459.457 551.856 459.169 551.536C458.881 551.216 458.753 550.8 458.753 550.256C458.753 549.76 458.881 549.312 459.169 548.928C459.457 548.544 459.841 548.24 460.337 548.016C460.833 547.808 461.393 547.696 462.033 547.696C463.057 547.696 463.905 547.936 464.545 548.384C465.185 548.848 465.537 549.488 465.601 550.32H463.921C463.873 549.952 463.681 549.648 463.361 549.408C463.025 549.168 462.609 549.04 462.113 549.04C461.601 549.04 461.201 549.136 460.897 549.328C460.577 549.52 460.433 549.792 460.433 550.112C460.433 550.368 460.497 550.544 460.657 550.672C460.817 550.8 461.009 550.88 461.249 550.928C461.473 550.976 461.857 551.024 462.385 551.088C463.089 551.168 463.681 551.28 464.161 551.44C464.641 551.6 465.025 551.84 465.313 552.176C465.601 552.512 465.745 552.96 465.745 553.536C465.745 554.048 465.585 554.512 465.297 554.896C464.993 555.28 464.577 555.584 464.065 555.792C463.537 556 462.945 556.096 462.305 556.096C461.201 556.096 460.305 555.856 459.633 555.36C458.961 554.864 458.609 554.176 458.593 553.296H460.257Z" fill="#FCFCFC"/>
<path d="M412.248 576.424C412.696 575.56 413.32 574.904 414.136 574.424C414.952 573.944 415.912 573.704 417 573.704C417.832 573.704 418.6 573.864 419.272 574.184C419.944 574.504 420.504 574.968 420.936 575.56C421.352 576.152 421.624 576.84 421.752 577.608H419.912C419.72 576.904 419.368 576.344 418.856 575.928C418.328 575.528 417.688 575.32 416.92 575.32C416.216 575.32 415.608 575.496 415.096 575.848C414.568 576.2 414.168 576.68 413.896 577.288C413.608 577.896 413.48 578.6 413.48 579.4C413.48 580.2 413.608 580.904 413.896 581.512C414.168 582.136 414.568 582.616 415.096 582.968C415.608 583.32 416.216 583.48 416.92 583.48C417.688 583.48 418.328 583.288 418.84 582.872C419.352 582.472 419.704 581.912 419.896 581.192H421.736C421.608 581.992 421.336 582.68 420.92 583.256C420.504 583.848 419.96 584.296 419.288 584.616C418.616 584.936 417.848 585.096 417 585.096C415.912 585.096 414.952 584.872 414.136 584.392C413.32 583.928 412.696 583.272 412.248 582.408C411.8 581.544 411.592 580.552 411.592 579.4C411.592 578.28 411.8 577.288 412.248 576.424ZM424.505 584.584C423.865 584.232 423.385 583.752 423.033 583.112C422.681 582.472 422.521 581.736 422.521 580.904C422.521 580.088 422.681 579.368 423.033 578.728C423.385 578.088 423.865 577.592 424.505 577.24C425.145 576.888 425.865 576.712 426.697 576.712C427.513 576.712 428.233 576.888 428.873 577.24C429.513 577.592 429.993 578.088 430.345 578.728C430.697 579.368 430.873 580.088 430.873 580.904C430.873 581.736 430.697 582.472 430.345 583.112C429.993 583.752 429.513 584.232 428.873 584.584C428.233 584.936 427.513 585.096 426.697 585.096C425.865 585.096 425.145 584.936 424.505 584.584ZM428.441 582.872C428.889 582.36 429.113 581.704 429.113 580.904C429.113 580.104 428.889 579.464 428.441 578.952C427.993 578.44 427.417 578.184 426.697 578.184C425.961 578.184 425.385 578.44 424.953 578.952C424.505 579.464 424.297 580.104 424.297 580.904C424.297 581.704 424.505 582.36 424.953 582.872C425.385 583.384 425.961 583.624 426.697 583.624C427.417 583.624 427.993 583.384 428.441 582.872ZM438.63 577.608C439.238 578.216 439.558 579.176 439.558 580.488V585H437.814V580.584C437.814 579.816 437.638 579.224 437.318 578.808C436.982 578.408 436.502 578.2 435.862 578.2C435.174 578.2 434.63 578.44 434.246 578.92C433.862 579.4 433.67 580.04 433.67 580.872V585H431.942V576.808H433.446L433.638 577.88C434.246 577.112 435.126 576.712 436.262 576.712C437.222 576.712 438.022 577.016 438.63 577.608ZM441.338 578.328H439.914V576.808H441.338V574.52H443.082V576.808H445.05V578.328H443.082V582.6C443.082 582.92 443.146 583.16 443.274 583.288C443.402 583.416 443.61 583.48 443.93 583.48H445.242V585H443.578C442.794 585 442.218 584.824 441.866 584.456C441.514 584.104 441.338 583.544 441.338 582.776V578.328ZM453.596 583.496V585H452.684C452.14 585 451.756 584.888 451.532 584.664C451.292 584.44 451.18 584.12 451.18 583.688C450.556 584.632 449.66 585.096 448.476 585.096C447.548 585.096 446.812 584.888 446.268 584.456C445.708 584.04 445.436 583.448 445.436 582.696C445.436 581.864 445.724 581.208 446.332 580.76C446.924 580.312 447.788 580.072 448.94 580.072H451.004V579.576C451.004 579.128 450.844 578.76 450.524 578.504C450.204 578.248 449.756 578.104 449.196 578.104C448.684 578.104 448.268 578.216 447.948 578.44C447.628 578.664 447.436 578.952 447.372 579.304H445.676C445.756 578.488 446.124 577.848 446.764 577.4C447.404 576.952 448.236 576.712 449.276 576.712C450.364 576.712 451.212 576.968 451.82 577.48C452.412 577.992 452.716 578.728 452.716 579.688V582.92C452.716 583.304 452.892 583.496 453.26 583.496H453.596ZM451.004 581.352H448.86C448.316 581.352 447.916 581.464 447.628 581.672C447.34 581.88 447.196 582.184 447.196 582.584C447.196 582.936 447.324 583.224 447.596 583.432C447.868 583.656 448.236 583.752 448.716 583.752C449.42 583.752 449.98 583.56 450.38 583.176C450.78 582.792 450.988 582.28 451.004 581.64V581.352ZM460.537 584.296C459.865 584.84 459.017 585.096 457.993 585.096C457.177 585.096 456.457 584.936 455.849 584.584C455.225 584.232 454.745 583.736 454.409 583.096C454.073 582.456 453.913 581.72 453.913 580.888C453.913 580.056 454.073 579.336 454.425 578.696C454.761 578.072 455.241 577.592 455.865 577.24C456.489 576.888 457.209 576.712 458.041 576.712C459.065 576.712 459.897 576.984 460.553 577.528C461.193 578.072 461.609 578.792 461.769 579.72H459.993C459.865 579.256 459.641 578.888 459.289 578.6C458.937 578.328 458.505 578.184 457.993 578.184C457.289 578.184 456.729 578.44 456.313 578.936C455.897 579.448 455.689 580.088 455.689 580.888C455.689 581.704 455.897 582.36 456.313 582.872C456.729 583.384 457.289 583.624 457.993 583.624C458.521 583.624 458.969 583.496 459.321 583.208C459.673 582.92 459.897 582.536 460.009 582.056H461.769C461.609 583.016 461.193 583.752 460.537 584.296ZM463.362 578.328H461.938V576.808H463.362V574.52H465.106V576.808H467.074V578.328H465.106V582.6C465.106 582.92 465.17 583.16 465.298 583.288C465.426 583.416 465.634 583.48 465.954 583.48H467.266V585H465.602C464.818 585 464.242 584.824 463.89 584.456C463.538 584.104 463.362 583.544 463.362 582.776V578.328ZM478.991 576.808V585H477.471L477.279 583.96C476.655 584.728 475.807 585.096 474.751 585.096C473.791 585.096 473.007 584.808 472.415 584.2C471.807 583.608 471.519 582.648 471.519 581.32V576.808H473.247V581.144C473.247 581.944 473.407 582.552 473.727 582.968C474.047 583.384 474.511 583.592 475.151 583.592C475.807 583.592 476.319 583.352 476.703 582.872C477.071 582.392 477.263 581.72 477.263 580.872V576.808H478.991ZM481.75 582.296C481.782 582.728 481.974 583.08 482.342 583.352C482.71 583.624 483.19 583.752 483.782 583.752C484.294 583.752 484.726 583.656 485.046 583.464C485.366 583.272 485.542 583 485.542 582.664C485.542 582.392 485.462 582.184 485.318 582.04C485.158 581.912 484.966 581.816 484.71 581.752C484.454 581.688 484.07 581.624 483.558 581.56C482.838 581.48 482.246 581.368 481.782 581.224C481.318 581.08 480.95 580.856 480.662 580.536C480.374 580.216 480.246 579.8 480.246 579.256C480.246 578.76 480.374 578.312 480.662 577.928C480.95 577.544 481.334 577.24 481.83 577.016C482.326 576.808 482.886 576.696 483.526 576.696C484.55 576.696 485.398 576.936 486.038 577.384C486.678 577.848 487.03 578.488 487.094 579.32H485.414C485.366 578.952 485.174 578.648 484.854 578.408C484.518 578.168 484.102 578.04 483.606 578.04C483.094 578.04 482.694 578.136 482.39 578.328C482.07 578.52 481.926 578.792 481.926 579.112C481.926 579.368 481.99 579.544 482.15 579.672C482.31 579.8 482.502 579.88 482.742 579.928C482.966 579.976 483.35 580.024 483.878 580.088C484.582 580.168 485.174 580.28 485.654 580.44C486.134 580.6 486.518 580.84 486.806 581.176C487.094 581.512 487.238 581.96 487.238 582.536C487.238 583.048 487.078 583.512 486.79 583.896C486.486 584.28 486.07 584.584 485.558 584.792C485.03 585 484.438 585.096 483.798 585.096C482.694 585.096 481.798 584.856 481.126 584.36C480.454 583.864 480.102 583.176 480.086 582.296H481.75Z" fill="#FCFCFC"/>
<path d="M177.241 443.353V447.2H183.608V462.751H188.01V447.2H194.34V443.353H177.241Z" fill="#FCFCFC"/>
<path d="M210.105 447.2V443.353H196.26V462.751H210.105V458.899H200.665V454.955H208.727V451.11H200.665V447.2H210.105Z" fill="#FCFCFC"/>
<path d="M220.334 450.614C217.224 449.566 216.755 449.236 216.755 448.356C216.755 447.37 217.988 446.924 219.974 446.924C222.37 446.924 224.187 447.585 224.187 449.953H228.592C228.592 446.098 225.92 443.072 219.965 443.072C214.956 443.072 212.341 444.888 212.341 448.191C212.341 451.989 215.673 453.091 219.772 454.467C222.607 455.43 224.976 456.064 224.976 457.466C224.976 458.512 224.039 459.172 221.204 459.172C217.376 459.172 215.898 458.238 215.898 455.265H211.48C211.48 459.635 213.561 462.386 218.974 462.929C219.629 462.993 220.332 463.027 221.086 463.027C221.76 463.029 222.434 462.996 223.105 462.929C227.593 462.455 229.398 460.338 229.398 457.412C229.398 453.365 223.921 451.824 220.334 450.614Z" fill="#FCFCFC"/>
<path d="M239.913 450.614C236.803 449.566 236.334 449.236 236.334 448.356C236.334 447.37 237.567 446.924 239.556 446.924C241.949 446.924 243.766 447.585 243.766 449.953H248.171C248.171 446.098 245.499 443.072 239.556 443.072C234.545 443.072 231.932 444.888 231.932 448.191C231.932 451.989 235.262 453.091 239.361 454.467C242.198 455.43 244.565 456.064 244.565 457.466C244.565 458.512 243.628 459.172 240.793 459.172C236.941 459.172 235.455 458.238 235.455 455.265H231.05C231.05 459.635 233.13 462.386 238.543 462.929C239.199 462.993 239.901 463.027 240.655 463.027C241.329 463.029 242.002 462.996 242.672 462.929C247.163 462.458 248.967 460.338 248.967 457.412C248.967 453.365 243.49 451.824 239.913 450.614Z" fill="#FCFCFC"/>
<path d="M263.556 447.2V443.353H250.345V447.2H254.747V458.899H250.345V462.751H263.556V458.899H259.152V447.2H263.556Z" fill="#FCFCFC"/>
<path d="M279.159 443.353V453.587C279.159 457.052 278.829 459.172 274.784 459.172C270.739 459.172 270.436 457.052 270.436 453.587V443.353H266.031V455.539C266.031 459.847 268.402 462.416 272.975 462.934C274.177 463.065 275.391 463.065 276.593 462.934C281.171 462.421 283.564 459.852 283.564 455.539V443.353H279.159Z" fill="#FCFCFC"/>
<path d="M301.481 443.353L298.646 461.654H297.547L294.71 443.353H286.041V462.751H290.446V447.2L289.62 444.447H290.719L293.83 462.751H302.363L305.472 444.447H306.573L305.748 447.2V462.751H310.152V443.353H301.481Z" fill="#FCFCFC"/>
<path d="M163.195 464.075C160.188 460.905 156.834 457.419 153.858 454.274H167.203V446.234H121.083V454.39H134.393C131.157 457.792 128.177 460.925 125.125 464.124L125.779 464.427L132.584 467.594C135.146 464.898 137.709 462.204 140.272 459.512V471.161L144.169 473L148.071 471.245V459.788L155.581 467.7L163.195 464.075Z" fill="#461DA1"/>
<path d="M121 441.008V433H167.125V441.008H121Z" fill="#461DA1"/>
<path d="M122.024 498V486.8H123.864V496.368H128.68V498H122.024ZM137.306 496.496V498H136.394C135.85 498 135.466 497.888 135.242 497.664C135.002 497.44 134.89 497.12 134.89 496.688C134.266 497.632 133.37 498.096 132.185 498.096C131.257 498.096 130.521 497.888 129.977 497.456C129.417 497.04 129.145 496.448 129.145 495.696C129.145 494.864 129.433 494.208 130.041 493.76C130.633 493.312 131.497 493.072 132.649 493.072H134.714V492.576C134.714 492.128 134.554 491.76 134.234 491.504C133.914 491.248 133.465 491.104 132.905 491.104C132.394 491.104 131.977 491.216 131.658 491.44C131.337 491.664 131.145 491.952 131.082 492.304H129.385C129.465 491.488 129.833 490.848 130.473 490.4C131.113 489.952 131.945 489.712 132.985 489.712C134.074 489.712 134.922 489.968 135.53 490.48C136.122 490.992 136.426 491.728 136.426 492.688V495.92C136.426 496.304 136.602 496.496 136.97 496.496H137.306ZM134.714 494.352H132.569C132.026 494.352 131.625 494.464 131.337 494.672C131.049 494.88 130.905 495.184 130.905 495.584C130.905 495.936 131.033 496.224 131.306 496.432C131.577 496.656 131.945 496.752 132.425 496.752C133.129 496.752 133.689 496.56 134.089 496.176C134.49 495.792 134.698 495.28 134.714 494.64V494.352ZM145.271 489.808V498H143.751L143.559 496.96C142.935 497.728 142.087 498.096 141.031 498.096C140.071 498.096 139.287 497.808 138.695 497.2C138.087 496.608 137.799 495.648 137.799 494.32V489.808H139.527V494.144C139.527 494.944 139.687 495.552 140.007 495.968C140.327 496.384 140.791 496.592 141.431 496.592C142.087 496.592 142.599 496.352 142.983 495.872C143.351 495.392 143.543 494.72 143.543 493.872V489.808H145.271ZM153.342 490.608C153.95 491.216 154.27 492.176 154.27 493.488V498H152.526V493.584C152.526 492.816 152.35 492.224 152.03 491.808C151.694 491.408 151.214 491.2 150.574 491.2C149.886 491.2 149.342 491.44 148.958 491.92C148.574 492.4 148.382 493.04 148.382 493.872V498H146.654V489.808H148.158L148.35 490.88C148.958 490.112 149.838 489.712 150.974 489.712C151.934 489.712 152.734 490.016 153.342 490.608ZM161.841 497.296C161.169 497.84 160.321 498.096 159.297 498.096C158.481 498.096 157.761 497.936 157.153 497.584C156.529 497.232 156.049 496.736 155.713 496.096C155.377 495.456 155.217 494.72 155.217 493.888C155.217 493.056 155.377 492.336 155.729 491.696C156.065 491.072 156.545 490.592 157.169 490.24C157.793 489.888 158.513 489.712 159.345 489.712C160.369 489.712 161.201 489.984 161.857 490.528C162.497 491.072 162.913 491.792 163.073 492.72H161.297C161.169 492.256 160.945 491.888 160.593 491.6C160.241 491.328 159.809 491.184 159.297 491.184C158.593 491.184 158.033 491.44 157.617 491.936C157.201 492.448 156.993 493.088 156.993 493.888C156.993 494.704 157.201 495.36 157.617 495.872C158.033 496.384 158.593 496.624 159.297 496.624C159.825 496.624 160.273 496.496 160.625 496.208C160.977 495.92 161.201 495.536 161.313 495.056H163.073C162.913 496.016 162.497 496.752 161.841 497.296ZM170.827 490.608C171.435 491.216 171.755 492.176 171.755 493.488V498H170.027V493.584C170.027 492.816 169.851 492.224 169.515 491.808C169.179 491.408 168.699 491.2 168.059 491.2C167.371 491.2 166.827 491.44 166.443 491.92C166.059 492.4 165.867 493.04 165.867 493.856V498H164.139V486.8H165.867V490.992C166.475 490.144 167.339 489.712 168.443 489.712C169.419 489.712 170.219 490.016 170.827 490.608ZM176.06 498L180.252 486.8H182.444L186.62 498H184.652L183.596 495.232H179.004L177.964 498H176.06ZM179.516 493.664H183.084L181.292 488.784L179.516 493.664ZM193.656 490.224C194.232 490.56 194.696 491.04 195.032 491.68C195.352 492.32 195.528 493.056 195.528 493.904C195.528 494.736 195.352 495.472 195.032 496.112C194.696 496.752 194.232 497.232 193.656 497.584C193.064 497.936 192.392 498.096 191.656 498.096C191.048 498.096 190.52 497.984 190.072 497.76C189.624 497.536 189.256 497.232 189 496.848V501.2H187.272V489.808H188.776L188.984 491.024C189.64 490.16 190.536 489.712 191.656 489.712C192.392 489.712 193.064 489.888 193.656 490.224ZM193.096 495.872C193.544 495.36 193.768 494.704 193.768 493.904C193.768 493.104 193.544 492.448 193.096 491.936C192.648 491.44 192.072 491.184 191.368 491.184C190.648 491.184 190.072 491.44 189.64 491.936C189.192 492.432 188.984 493.072 188.984 493.872C188.984 494.704 189.192 495.36 189.64 495.872C190.072 496.384 190.648 496.64 191.368 496.64C192.072 496.64 192.648 496.384 193.096 495.872ZM202.977 490.224C203.553 490.56 204.017 491.04 204.353 491.68C204.673 492.32 204.849 493.056 204.849 493.904C204.849 494.736 204.673 495.472 204.353 496.112C204.017 496.752 203.553 497.232 202.977 497.584C202.385 497.936 201.713 498.096 200.977 498.096C200.369 498.096 199.841 497.984 199.393 497.76C198.945 497.536 198.577 497.232 198.321 496.848V501.2H196.593V489.808H198.097L198.305 491.024C198.961 490.16 199.857 489.712 200.977 489.712C201.713 489.712 202.385 489.888 202.977 490.224ZM202.417 495.872C202.865 495.36 203.089 494.704 203.089 493.904C203.089 493.104 202.865 492.448 202.417 491.936C201.969 491.44 201.393 491.184 200.689 491.184C199.969 491.184 199.393 491.44 198.961 491.936C198.513 492.432 198.305 493.072 198.305 493.872C198.305 494.704 198.513 495.36 198.961 495.872C199.393 496.384 199.969 496.64 200.689 496.64C201.393 496.64 201.969 496.384 202.417 495.872Z" fill="#FCFCFC"/>
<path d="M121.304 515.8L123.224 515.784L125.608 524.664L128.104 515.8H129.848L132.264 524.664L134.68 515.8H136.552L133.352 527H131.192L128.904 518.76L126.664 527H124.504L121.304 515.8ZM144.384 525.496V527H143.472C142.928 527 142.544 526.888 142.32 526.664C142.08 526.44 141.968 526.12 141.968 525.688C141.344 526.632 140.448 527.096 139.264 527.096C138.336 527.096 137.6 526.888 137.056 526.456C136.496 526.04 136.224 525.448 136.224 524.696C136.224 523.864 136.512 523.208 137.12 522.76C137.712 522.312 138.576 522.072 139.728 522.072H141.792V521.576C141.792 521.128 141.632 520.76 141.312 520.504C140.992 520.248 140.544 520.104 139.984 520.104C139.472 520.104 139.056 520.216 138.736 520.44C138.416 520.664 138.224 520.952 138.16 521.304H136.464C136.544 520.488 136.912 519.848 137.552 519.4C138.192 518.952 139.024 518.712 140.064 518.712C141.152 518.712 142 518.968 142.608 519.48C143.2 519.992 143.504 520.728 143.504 521.688V524.92C143.504 525.304 143.68 525.496 144.048 525.496H144.384ZM141.792 523.352H139.648C139.104 523.352 138.704 523.464 138.416 523.672C138.128 523.88 137.984 524.184 137.984 524.584C137.984 524.936 138.112 525.224 138.384 525.432C138.656 525.656 139.024 525.752 139.504 525.752C140.208 525.752 140.768 525.56 141.168 525.176C141.568 524.792 141.776 524.28 141.792 523.64V523.352ZM146.621 515.832C146.813 516.024 146.925 516.28 146.925 516.568C146.925 516.872 146.813 517.128 146.621 517.32C146.413 517.512 146.157 517.608 145.869 517.608C145.565 517.608 145.309 517.512 145.117 517.32C144.909 517.128 144.813 516.872 144.813 516.568C144.813 516.28 144.909 516.024 145.117 515.832C145.309 515.64 145.565 515.528 145.869 515.528C146.157 515.528 146.413 515.64 146.621 515.832ZM145.005 518.808H146.733V527H145.005V518.808ZM148.635 520.328H147.211V518.808H148.635V516.52H150.379V518.808H152.347V520.328H150.379V524.6C150.379 524.92 150.443 525.16 150.571 525.288C150.699 525.416 150.907 525.48 151.227 525.48H152.539V527H150.875C150.091 527 149.515 526.824 149.163 526.456C148.811 526.104 148.635 525.544 148.635 524.776V520.328ZM153.146 515.8H154.874V527H153.146V515.8ZM157.864 515.832C158.056 516.024 158.168 516.28 158.168 516.568C158.168 516.872 158.056 517.128 157.864 517.32C157.656 517.512 157.4 517.608 157.112 517.608C156.808 517.608 156.552 517.512 156.36 517.32C156.152 517.128 156.056 516.872 156.056 516.568C156.056 516.28 156.152 516.024 156.36 515.832C156.552 515.64 156.808 515.528 157.112 515.528C157.4 515.528 157.656 515.64 157.864 515.832ZM156.248 518.808H157.976V527H156.248V518.808ZM160.726 524.296C160.758 524.728 160.95 525.08 161.318 525.352C161.686 525.624 162.166 525.752 162.758 525.752C163.27 525.752 163.702 525.656 164.022 525.464C164.342 525.272 164.518 525 164.518 524.664C164.518 524.392 164.438 524.184 164.294 524.04C164.134 523.912 163.942 523.816 163.686 523.752C163.43 523.688 163.046 523.624 162.534 523.56C161.814 523.48 161.222 523.368 160.758 523.224C160.294 523.08 159.926 522.856 159.638 522.536C159.35 522.216 159.222 521.8 159.222 521.256C159.222 520.76 159.35 520.312 159.638 519.928C159.926 519.544 160.31 519.24 160.806 519.016C161.302 518.808 161.862 518.696 162.502 518.696C163.526 518.696 164.374 518.936 165.014 519.384C165.654 519.848 166.006 520.488 166.07 521.32H164.39C164.342 520.952 164.15 520.648 163.83 520.408C163.494 520.168 163.078 520.04 162.582 520.04C162.07 520.04 161.67 520.136 161.366 520.328C161.046 520.52 160.902 520.792 160.902 521.112C160.902 521.368 160.966 521.544 161.126 521.672C161.286 521.8 161.478 521.88 161.718 521.928C161.942 521.976 162.326 522.024 162.854 522.088C163.558 522.168 164.15 522.28 164.63 522.44C165.11 522.6 165.494 522.84 165.782 523.176C166.07 523.512 166.214 523.96 166.214 524.536C166.214 525.048 166.054 525.512 165.766 525.896C165.462 526.28 165.046 526.584 164.534 526.792C164.006 527 163.414 527.096 162.774 527.096C161.67 527.096 160.774 526.856 160.102 526.36C159.43 525.864 159.078 525.176 159.062 524.296H160.726ZM167.823 520.328H166.399V518.808H167.823V516.52H169.567V518.808H171.535V520.328H169.567V524.6C169.567 524.92 169.631 525.16 169.759 525.288C169.887 525.416 170.095 525.48 170.415 525.48H171.727V527H170.063C169.279 527 168.703 526.824 168.351 526.456C167.999 526.104 167.823 525.544 167.823 524.776V520.328Z" fill="#FCFCFC"/>
<path d="M1117.32 445.992C1118.08 444.48 1119.17 443.332 1120.6 442.492C1122 441.652 1123.65 441.232 1125.53 441.232C1127.68 441.232 1129.5 441.82 1130.96 442.996C1132.42 444.172 1133.34 445.796 1133.73 447.812H1131.3C1130.93 446.468 1130.23 445.404 1129.2 444.62C1128.16 443.864 1126.9 443.472 1125.42 443.472C1124.07 443.472 1122.87 443.808 1121.86 444.452C1120.82 445.124 1120.04 446.02 1119.48 447.196C1118.92 448.372 1118.67 449.688 1118.67 451.2C1118.67 452.712 1118.92 454.028 1119.48 455.204C1120.04 456.38 1120.82 457.304 1121.86 457.948C1122.87 458.62 1124.07 458.928 1125.42 458.928C1126.93 458.928 1128.19 458.564 1129.2 457.808C1130.2 457.052 1130.88 455.988 1131.27 454.588H1133.7C1133.31 456.632 1132.42 458.228 1130.96 459.404C1129.5 460.58 1127.71 461.168 1125.53 461.168C1123.65 461.168 1122 460.776 1120.6 459.936C1119.17 459.096 1118.08 457.948 1117.32 456.436C1116.54 454.924 1116.18 453.188 1116.18 451.2C1116.18 449.24 1116.54 447.504 1117.32 445.992ZM1138.77 460.244C1137.71 459.628 1136.87 458.788 1136.28 457.668C1135.66 456.576 1135.38 455.316 1135.38 453.86C1135.38 452.432 1135.66 451.172 1136.28 450.052C1136.87 448.96 1137.71 448.092 1138.77 447.476C1139.83 446.86 1141.07 446.552 1142.47 446.552C1143.84 446.552 1145.07 446.86 1146.13 447.476C1147.2 448.092 1148.04 448.96 1148.65 450.052C1149.24 451.172 1149.55 452.432 1149.55 453.86C1149.55 455.316 1149.24 456.576 1148.65 457.668C1148.04 458.788 1147.2 459.628 1146.13 460.244C1145.07 460.86 1143.84 461.168 1142.47 461.168C1141.07 461.168 1139.83 460.86 1138.77 460.244ZM1144.93 458.452C1145.66 458.004 1146.22 457.388 1146.61 456.576C1147 455.792 1147.2 454.868 1147.2 453.86C1147.2 452.852 1147 451.956 1146.61 451.144C1146.22 450.36 1145.66 449.716 1144.93 449.268C1144.2 448.82 1143.39 448.596 1142.47 448.596C1141.51 448.596 1140.7 448.82 1139.97 449.268C1139.25 449.716 1138.71 450.36 1138.32 451.144C1137.93 451.956 1137.73 452.852 1137.73 453.86C1137.73 454.868 1137.93 455.792 1138.32 456.576C1138.71 457.388 1139.25 458.004 1139.97 458.452C1140.7 458.9 1141.51 459.124 1142.47 459.124C1143.39 459.124 1144.2 458.9 1144.93 458.452ZM1162.8 448.12C1163.86 449.184 1164.39 450.808 1164.39 453.048V461H1162.1V453.188C1162.1 451.732 1161.76 450.612 1161.09 449.828C1160.42 449.044 1159.46 448.652 1158.23 448.652C1156.89 448.652 1155.82 449.128 1155.07 450.052C1154.28 451.004 1153.92 452.264 1153.92 453.86V461H1151.62V446.72H1153.61L1153.92 448.652C1154.98 447.252 1156.55 446.552 1158.62 446.552C1160.36 446.552 1161.73 447.084 1162.8 448.12ZM1177.93 448.12C1179 449.184 1179.53 450.808 1179.53 453.048V461H1177.23V453.188C1177.23 451.732 1176.9 450.612 1176.22 449.828C1175.55 449.044 1174.6 448.652 1173.37 448.652C1172.02 448.652 1170.96 449.128 1170.2 450.052C1169.42 451.004 1169.06 452.264 1169.06 453.86V461H1166.76V446.72H1168.75L1169.06 448.652C1170.12 447.252 1171.69 446.552 1173.76 446.552C1175.5 446.552 1176.87 447.084 1177.93 448.12ZM1182.23 450.024C1182.79 448.932 1183.6 448.092 1184.64 447.476C1185.65 446.86 1186.82 446.552 1188.17 446.552C1189.45 446.552 1190.63 446.832 1191.64 447.364C1192.65 447.924 1193.43 448.708 1194.02 449.716C1194.58 450.752 1194.89 451.956 1194.94 453.328C1194.94 453.552 1194.91 453.86 1194.89 454.308H1183.8V454.504C1183.83 455.904 1184.25 457.024 1185.09 457.864C1185.9 458.704 1186.96 459.124 1188.31 459.124C1189.31 459.124 1190.18 458.872 1190.91 458.368C1191.64 457.864 1192.11 457.136 1192.37 456.212H1194.69C1194.41 457.668 1193.71 458.872 1192.59 459.796C1191.47 460.72 1190.1 461.168 1188.47 461.168C1187.05 461.168 1185.81 460.888 1184.75 460.272C1183.69 459.656 1182.85 458.816 1182.26 457.696C1181.67 456.576 1181.39 455.316 1181.39 453.86C1181.39 452.404 1181.67 451.144 1182.23 450.024ZM1192.56 452.404C1192.45 451.2 1191.97 450.248 1191.19 449.576C1190.41 448.904 1189.4 448.568 1188.19 448.568C1187.1 448.568 1186.15 448.932 1185.34 449.632C1184.5 450.36 1184.05 451.284 1183.94 452.404H1192.56ZM1207.64 459.824C1206.52 460.72 1205.12 461.168 1203.44 461.168C1202.04 461.168 1200.84 460.86 1199.8 460.244C1198.74 459.628 1197.93 458.788 1197.37 457.668C1196.78 456.548 1196.5 455.288 1196.5 453.832C1196.5 452.404 1196.78 451.144 1197.37 450.024C1197.95 448.932 1198.79 448.092 1199.86 447.476C1200.92 446.86 1202.13 446.552 1203.53 446.552C1205.21 446.552 1206.58 447 1207.67 447.896C1208.76 448.792 1209.46 450.024 1209.74 451.592H1207.42C1207.19 450.696 1206.72 449.968 1206.02 449.408C1205.29 448.876 1204.45 448.596 1203.44 448.596C1202.07 448.596 1200.95 449.1 1200.11 450.052C1199.27 451.032 1198.85 452.292 1198.85 453.832C1198.85 455.4 1199.27 456.688 1200.11 457.668C1200.95 458.648 1202.07 459.124 1203.44 459.124C1204.48 459.124 1205.35 458.872 1206.07 458.312C1206.77 457.78 1207.22 457.024 1207.45 456.072H1209.74C1209.43 457.668 1208.73 458.928 1207.64 459.824ZM1212.79 448.82H1210.21V446.72H1212.79V442.716H1215.08V446.72H1218.7V448.82H1215.08V457.248C1215.08 457.864 1215.2 458.284 1215.42 458.536C1215.64 458.788 1216.06 458.9 1216.65 458.9H1219.14V461H1216.51C1215.17 461 1214.19 460.72 1213.63 460.104C1213.07 459.516 1212.79 458.564 1212.79 457.276V448.82ZM1225.64 446.72H1228.05L1231.61 458.34L1235.36 446.72H1237.49L1241.04 458.34L1244.77 446.72H1247.09L1242.33 461H1239.81L1236.37 450.388L1232.78 461L1230.26 461.028L1225.64 446.72ZM1250.54 441.624C1250.82 441.904 1250.96 442.268 1250.96 442.688C1250.96 443.136 1250.82 443.472 1250.54 443.752C1250.26 444.032 1249.9 444.172 1249.48 444.172C1249.03 444.172 1248.69 444.032 1248.41 443.752C1248.13 443.472 1247.99 443.136 1247.99 442.688C1247.99 442.268 1248.13 441.904 1248.41 441.624C1248.69 441.344 1249.03 441.204 1249.48 441.204C1249.9 441.204 1250.26 441.344 1250.54 441.624ZM1248.33 446.72H1250.62V461H1248.33V446.72ZM1254.16 448.82H1251.59V446.72H1254.16V442.716H1256.46V446.72H1260.07V448.82H1256.46V457.248C1256.46 457.864 1256.57 458.284 1256.79 458.536C1257.02 458.788 1257.44 458.9 1258.03 458.9H1260.52V461H1257.89C1256.54 461 1255.56 460.72 1255 460.104C1254.44 459.516 1254.16 458.564 1254.16 457.276V448.82ZM1272.79 448.12C1273.86 449.184 1274.39 450.808 1274.39 453.048V461H1272.09V453.188C1272.09 451.732 1271.76 450.612 1271.08 449.828C1270.41 449.044 1269.43 448.652 1268.2 448.652C1266.86 448.652 1265.82 449.128 1265.04 450.052C1264.25 451.004 1263.89 452.264 1263.89 453.86V461H1261.59V441.4H1263.89V449.072C1264.34 448.344 1264.95 447.728 1265.74 447.252C1266.52 446.804 1267.47 446.552 1268.59 446.552C1270.33 446.552 1271.73 447.084 1272.79 448.12ZM1295.81 446.72V461H1293.83L1293.52 459.096C1292.43 460.496 1290.91 461.168 1288.95 461.168C1287.25 461.168 1285.87 460.664 1284.87 459.6C1283.83 458.564 1283.33 456.912 1283.33 454.672V446.72H1285.62V454.532C1285.62 456.016 1285.93 457.136 1286.57 457.92C1287.22 458.704 1288.14 459.068 1289.35 459.068C1290.63 459.068 1291.67 458.62 1292.4 457.668C1293.13 456.744 1293.52 455.484 1293.52 453.86V446.72H1295.81ZM1300.18 456.296C1300.2 457.164 1300.57 457.864 1301.3 458.396C1302.02 458.956 1302.95 459.208 1304.1 459.208C1305.1 459.208 1305.92 459.012 1306.53 458.62C1307.15 458.228 1307.48 457.696 1307.48 457.024C1307.48 456.464 1307.32 456.044 1307.04 455.736C1306.73 455.456 1306.34 455.232 1305.86 455.12C1305.38 455.008 1304.71 454.896 1303.84 454.784C1302.61 454.644 1301.6 454.448 1300.82 454.196C1300.04 453.972 1299.39 453.58 1298.92 453.048C1298.41 452.516 1298.19 451.788 1298.19 450.836C1298.19 449.996 1298.41 449.268 1298.89 448.596C1299.36 447.952 1300.01 447.448 1300.85 447.084C1301.66 446.72 1302.58 446.524 1303.62 446.524C1305.3 446.524 1306.64 446.916 1307.71 447.7C1308.77 448.484 1309.36 449.604 1309.47 451.06H1307.18C1307.06 450.332 1306.7 449.716 1306.08 449.212C1305.44 448.736 1304.66 448.484 1303.7 448.484C1302.72 448.484 1301.94 448.708 1301.35 449.1C1300.74 449.492 1300.46 450.024 1300.46 450.668C1300.46 451.172 1300.6 451.536 1300.88 451.788C1301.16 452.068 1301.49 452.236 1301.94 452.32C1302.39 452.432 1303.06 452.516 1303.96 452.628C1305.19 452.796 1306.22 452.992 1307.04 453.244C1307.85 453.524 1308.49 453.944 1309 454.504C1309.5 455.092 1309.75 455.876 1309.75 456.856C1309.75 457.724 1309.5 458.48 1309 459.124C1308.49 459.796 1307.79 460.3 1306.95 460.636C1306.08 461 1305.13 461.168 1304.1 461.168C1302.22 461.168 1300.71 460.748 1299.59 459.88C1298.47 459.04 1297.88 457.836 1297.88 456.296H1300.18Z" fill="#FCFCFC"/>
<path fill-rule="evenodd" clip-rule="evenodd" d="M1138.92 516.5L1130.59 504.635L1120.17 516.5H1115.76L1128.64 501.847L1115.76 483.5H1127.08L1134.93 494.683L1144.76 483.5H1149.17L1136.89 497.475L1150.24 516.5H1138.92ZM1143.83 513.155H1140.86L1122.08 486.845H1125.05L1132.57 497.38L1133.87 499.208L1143.83 513.155Z" fill="#FCFCFC"/>
<path d="M1176.14 485.276L1182.65 515.855C1183.14 518.008 1184.38 518.493 1186.19 517.521L1195.96 510.295L1200.74 514.88C1201.23 515.368 1201.71 515.855 1202.82 515.855L1202.06 505.777L1183.83 489.169C1183.07 488.404 1184.04 488.126 1185.01 488.753L1207.67 503.067L1217.45 500.079C1219.59 499.385 1219.59 497.924 1216.96 496.954L1178.98 482.15C1177.11 481.594 1175.51 482.569 1176.14 485.276Z" fill="#FCFCFC"/>
<path d="M1250.22 484.561C1252.78 483.367 1255.56 482.501 1258.45 482C1258.5 482.001 1258.54 482.021 1258.58 482.058C1258.93 482.693 1259.33 483.521 1259.6 484.157C1262.66 483.695 1265.78 483.695 1268.84 484.157C1269.11 483.502 1269.52 482.693 1269.88 482.058C1269.9 482.019 1269.96 482 1270.02 482C1272.91 482.501 1275.66 483.367 1278.24 484.561C1278.26 484.561 1278.28 484.581 1278.3 484.6C1283.54 492.438 1284.98 500.064 1284.27 507.612C1284.27 507.651 1284.25 507.69 1284.21 507.709C1280.75 510.251 1277.41 511.791 1274.12 512.812C1274.06 512.831 1274.01 512.812 1273.99 512.774C1273.22 511.714 1272.52 510.597 1271.93 509.423C1271.89 509.346 1271.93 509.269 1272 509.249C1273.1 508.826 1274.14 508.325 1275.16 507.747C1275.24 507.709 1275.24 507.593 1275.18 507.535C1274.97 507.381 1274.76 507.208 1274.54 507.054C1274.51 507.016 1274.45 507.016 1274.41 507.035C1267.79 510.058 1260.64 510.058 1254.09 507.035C1254.05 507.016 1254 507.016 1253.96 507.054C1253.75 507.227 1253.53 507.381 1253.32 507.555C1253.25 507.612 1253.25 507.728 1253.34 507.767C1254.34 508.364 1255.4 508.845 1256.5 509.269C1256.58 509.288 1256.6 509.384 1256.58 509.442C1255.96 510.617 1255.27 511.734 1254.52 512.793C1254.46 512.812 1254.4 512.831 1254.34 512.812C1251.03 511.791 1247.7 510.251 1244.23 507.709C1244.19 507.69 1244.18 507.651 1244.18 507.612C1243.33 498.889 1245.58 491.321 1250.15 484.6C1250.16 484.581 1250.18 484.561 1250.22 484.561ZM1270.92 503.01C1272.91 503.01 1274.56 501.18 1274.56 498.927C1274.56 496.674 1272.95 494.845 1270.92 494.845C1268.88 494.845 1267.27 496.693 1267.28 498.927C1267.28 501.18 1268.9 503.01 1270.92 503.01ZM1257.5 503.01C1259.49 503.01 1261.14 501.18 1261.14 498.927C1261.14 496.674 1259.52 494.845 1257.5 494.845C1255.46 494.845 1253.84 496.693 1253.86 498.927C1253.86 501.18 1255.46 503.01 1257.5 503.01Z" fill="#FCFCFC"/>
<g filter="url(#filter0_f_25046_2323)">
<ellipse cx="707" cy="847.5" rx="391" ry="287.5" fill="#461DA1"/>
</g>
<defs>
<filter id="filter0_f_25046_2323" x="-244" y="0" width="1902" height="1695" filterUnits="userSpaceOnUse" color-interpolation-filters="sRGB">
<feFlood flood-opacity="0" result="BackgroundImageFix"/>
<feBlend mode="normal" in="SourceGraphic" in2="BackgroundImageFix" result="shape"/>
<feGaussianBlur stdDeviation="280" result="effect1_foregroundBlur_25046_2323"/>
</filter>
</defs>
</svg>
