<svg width="190" height="40" viewBox="0 0 190 40" fill="none" xmlns="http://www.w3.org/2000/svg">
<path d="M56.2408 10.3524V14.2001H62.6076V29.751H67.0098V14.2001H73.3396V10.3524H56.2408Z" fill="#141220"/>
<path d="M89.1051 14.2001V10.3524H75.2599V29.751H89.1051V25.8984H79.6646V21.9546H87.7272V18.1094H79.6646V14.2001H89.1051Z" fill="#141220"/>
<path d="M99.3344 17.614C96.2238 16.5664 95.7554 16.2361 95.7554 15.3562C95.7554 14.3702 96.9879 13.9241 98.9746 13.9241C101.37 13.9241 103.187 14.5847 103.187 16.9534H107.592C107.592 13.0984 104.92 10.0715 98.9647 10.0715C93.9561 10.0715 91.3409 11.8881 91.3409 15.191C91.3409 18.9894 94.6734 20.0912 98.7725 21.4666C101.607 22.4304 103.976 23.0638 103.976 24.4664C103.976 25.5115 103.039 26.1721 100.205 26.1721C96.3766 26.1721 94.8977 25.2379 94.8977 22.2652H90.4806C90.4806 26.6355 92.561 29.3863 97.9738 29.9285C98.6295 29.9926 99.332 30.0271 100.086 30.0271C100.76 30.0288 101.434 29.9959 102.105 29.9285C106.593 29.4553 108.398 27.3379 108.398 24.4121C108.398 20.3648 102.921 18.8243 99.3344 17.614Z" fill="#141220"/>
<path d="M118.913 17.614C115.802 16.5664 115.334 16.2361 115.334 15.3562C115.334 14.3702 116.567 13.9241 118.556 13.9241C120.949 13.9241 122.766 14.5847 122.766 16.9534H127.17C127.17 13.0984 124.499 10.0715 118.556 10.0715C113.545 10.0715 110.932 11.8881 110.932 15.191C110.932 18.9894 114.262 20.0912 118.361 21.4666C121.198 22.4304 123.564 23.0638 123.564 24.4664C123.564 25.5115 122.628 26.1721 119.793 26.1721C115.94 26.1721 114.454 25.2379 114.454 22.2652H110.049C110.049 26.6355 112.13 29.3862 117.543 29.9285C118.198 29.9926 118.901 30.0271 119.655 30.0271C120.328 30.0289 121.001 29.996 121.671 29.9285C126.162 29.4577 127.967 27.3379 127.967 24.4121C127.967 20.3648 122.49 18.8243 118.913 17.614Z" fill="#141220"/>
<path d="M142.556 14.2001V10.3524H129.344V14.2001H133.747V25.8984H129.344V29.751H142.556V25.8984H138.151V14.2001H142.556Z" fill="#141220"/>
<path d="M158.159 10.3524V20.5866C158.159 24.0522 157.829 26.172 153.784 26.172C149.739 26.172 149.436 24.0522 149.436 20.5866V10.3524H145.031V22.5388C145.031 26.8474 147.402 29.4158 151.975 29.9334C153.177 30.0648 154.39 30.0648 155.593 29.9334C160.17 29.4207 162.564 26.8523 162.564 22.5388V10.3524H158.159Z" fill="#141220"/>
<path d="M180.48 10.3524L177.646 28.6541H176.546L173.709 10.3524H165.04V29.751H169.445V14.2001L168.619 11.4468H169.719L172.829 29.751H181.363L184.471 11.4468H185.573L184.747 14.2001V29.751H189.152V10.3524H180.48Z" fill="#141220"/>
<path d="M42.1957 31.0747C39.1886 27.9049 35.8339 24.4195 32.8588 21.2743H46.2036V13.2339H0.0833321V21.3902H13.3937C10.1573 24.7917 7.17724 27.9246 4.12573 31.124L4.77892 31.4272L11.5844 34.5945C14.1463 31.898 16.7089 29.2038 19.2724 26.5122V38.1612L23.1694 40L27.0713 38.245V26.7883L34.5817 34.7005L42.1957 31.0747Z" fill="#461DA1"/>
<path d="M0 8.00838V0H46.1252V8.00838H0Z" fill="#461DA1"/>
</svg>
