<svg width="41" height="31" viewBox="0 0 41 31" fill="none" xmlns="http://www.w3.org/2000/svg">
<path d="M6.22263 2.56125C8.78388 1.36728 11.557 0.500695 14.4456 0C14.4964 0.000723514 14.5448 0.021489 14.5804 0.0577729C14.927 0.693271 15.3314 1.52134 15.601 2.15684C18.6649 1.69495 21.7808 1.69495 24.8446 2.15684C25.1143 1.50209 25.5187 0.693271 25.8846 0.0577729C25.9038 0.0192579 25.9616 0 26.0194 0C28.908 0.500695 31.6618 1.36728 34.2423 2.56125C34.2616 2.56125 34.2808 2.58051 34.3001 2.59976C39.5381 10.4376 40.9824 18.0635 40.2699 25.6125C40.2699 25.651 40.2507 25.6895 40.2121 25.7088C36.7458 28.2508 33.4142 29.7914 30.1212 30.812C30.0634 30.8313 30.0057 30.812 29.9864 30.7735C29.2161 29.7143 28.5228 28.5974 27.9258 27.4227C27.8873 27.3457 27.9258 27.2686 28.0029 27.2494C29.1006 26.8257 30.1405 26.325 31.1611 25.7473C31.2381 25.7088 31.2381 25.5932 31.1804 25.5355C30.9685 25.3814 30.7567 25.2081 30.5449 25.054C30.5064 25.0155 30.4486 25.0155 30.4101 25.0348C23.7855 28.0582 16.6409 28.0582 10.0934 25.0348C10.0549 25.0155 9.9971 25.0155 9.95859 25.054C9.74676 25.2273 9.53492 25.3814 9.32309 25.5547C9.24606 25.6125 9.24606 25.728 9.34235 25.7666C10.3437 26.3635 11.4029 26.845 12.5006 27.2686C12.5776 27.2879 12.5969 27.3842 12.5776 27.442C11.9614 28.6167 11.2681 29.7336 10.5171 30.7928C10.4593 30.812 10.4015 30.8313 10.3437 30.812C7.03145 29.7914 3.6999 28.2508 0.233547 25.7088C0.19503 25.6895 0.175774 25.651 0.175774 25.6125C-0.671558 16.8888 1.58157 9.32064 6.1456 2.59976C6.16486 2.58051 6.18412 2.56125 6.22263 2.56125ZM26.9245 21.0099C28.908 21.0099 30.5641 19.1805 30.5641 16.9274C30.5641 14.6742 28.9465 12.8448 26.9245 12.8448C24.8832 12.8448 23.2655 14.6935 23.2848 16.9274C23.2848 19.1805 24.9024 21.0099 26.9245 21.0099ZM13.502 21.0099C15.4855 21.0099 17.1416 19.1805 17.1416 16.9274C17.1416 14.6742 15.524 12.8448 13.502 12.8448C11.4607 12.8448 9.84304 14.6935 9.8623 16.9274C9.8623 19.1805 11.4607 21.0099 13.502 21.0099Z" fill="#461DA1"/>
</svg>
